<svg width="36" height="19" viewBox="0 0 36 19" fill="none" xmlns="http://www.w3.org/2000/svg">
<path fill-rule="evenodd" clip-rule="evenodd" d="M7.5 0C3.35786 0 0 3.35786 0 7.5C0 11.6421 3.35786 15 7.5 15H25.8052C25.7954 15.9485 25.6041 17.0044 25.0328 18.2338C26.7946 18.7423 29.1525 16.5069 30.6294 14.6934C33.7344 13.7757 36 10.9024 36 7.5C36 3.35786 32.6421 0 28.5 0H7.5Z" fill="#FF7D1E"/>
<path d="M13.61 11C13.4633 10.7533 13.2933 10.4767 13.1 10.17C12.9133 9.86333 12.71 9.54667 12.49 9.22C12.27 8.88667 12.04 8.55 11.8 8.21C11.5667 7.87 11.3333 7.54333 11.1 7.23C10.8667 6.91 10.64 6.61 10.42 6.33C10.2 6.05 9.99667 5.80333 9.81 5.59V11H8.86V4.07H9.63C9.94333 4.40333 10.2767 4.79333 10.63 5.24C10.99 5.68 11.3433 6.13667 11.69 6.61C12.0433 7.07667 12.3733 7.53667 12.68 7.99C12.9933 8.44333 13.2567 8.84667 13.47 9.2V4.07H14.42V11H13.61ZM15.7854 8.41C15.7854 7.95 15.8521 7.55 15.9854 7.21C16.1187 6.86333 16.2954 6.57667 16.5154 6.35C16.7354 6.12333 16.9887 5.95333 17.2754 5.84C17.5621 5.72667 17.8554 5.67 18.1554 5.67C18.8554 5.67 19.3921 5.89 19.7654 6.33C20.1387 6.76333 20.3254 7.42667 20.3254 8.32C20.3254 8.36 20.3254 8.41333 20.3254 8.48C20.3254 8.54 20.3221 8.59667 20.3154 8.65H16.7554C16.7954 9.19 16.9521 9.6 17.2254 9.88C17.4987 10.16 17.9254 10.3 18.5054 10.3C18.8321 10.3 19.1054 10.2733 19.3254 10.22C19.5521 10.16 19.7221 10.1033 19.8354 10.05L19.9654 10.83C19.8521 10.89 19.6521 10.9533 19.3654 11.02C19.0854 11.0867 18.7654 11.12 18.4054 11.12C17.9521 11.12 17.5587 11.0533 17.2254 10.92C16.8987 10.78 16.6287 10.59 16.4154 10.35C16.2021 10.11 16.0421 9.82667 15.9354 9.5C15.8354 9.16667 15.7854 8.80333 15.7854 8.41ZM19.3554 7.9C19.3621 7.48 19.2554 7.13667 19.0354 6.87C18.8221 6.59667 18.5254 6.46 18.1454 6.46C17.9321 6.46 17.7421 6.50333 17.5754 6.59C17.4154 6.67 17.2787 6.77667 17.1654 6.91C17.0521 7.04333 16.9621 7.19667 16.8954 7.37C16.8354 7.54333 16.7954 7.72 16.7754 7.9H19.3554ZM25.9113 11C25.7247 10.52 25.5247 9.97333 25.3113 9.36C25.1047 8.74 24.9147 8.09667 24.7413 7.43C24.568 8.09667 24.378 8.74 24.1713 9.36C23.9647 9.97333 23.768 10.52 23.5813 11H22.7713C22.4647 10.3133 22.1647 9.53 21.8713 8.65C21.578 7.77 21.3013 6.82 21.0413 5.8H22.0413C22.108 6.11333 22.188 6.45333 22.2813 6.82C22.3747 7.18667 22.4713 7.55333 22.5713 7.92C22.678 8.28667 22.788 8.64 22.9013 8.98C23.0147 9.32 23.1213 9.61667 23.2213 9.87C23.3347 9.55667 23.4447 9.22667 23.5513 8.88C23.6647 8.52667 23.7713 8.17333 23.8713 7.82C23.9713 7.46 24.0647 7.11 24.1513 6.77C24.2447 6.42333 24.3247 6.1 24.3913 5.8H25.1613C25.2213 6.1 25.2947 6.42333 25.3813 6.77C25.468 7.11 25.5613 7.46 25.6613 7.82C25.7613 8.17333 25.8647 8.52667 25.9713 8.88C26.0847 9.22667 26.198 9.55667 26.3113 9.87C26.4113 9.61667 26.5147 9.32 26.6213 8.98C26.7347 8.64 26.8447 8.28667 26.9513 7.92C27.058 7.55333 27.158 7.18667 27.2513 6.82C27.3447 6.45333 27.4247 6.11333 27.4913 5.8H28.4513C28.1913 6.82 27.9147 7.77 27.6213 8.65C27.328 9.53 27.028 10.3133 26.7213 11H25.9113Z" fill="white"/>
</svg>
