<svg width="16" height="15" viewBox="0 0 16 15" fill="none" xmlns="http://www.w3.org/2000/svg">
<path d="M12.223 8.96782L12.223 8.9678L12.2187 8.9719C11.8959 9.28473 11.7483 9.73624 11.8216 10.1784L11.8215 10.1785L11.8228 10.1856L12.5246 14.0692C12.5246 14.0693 12.5246 14.0694 12.5246 14.0695C12.5246 14.0695 12.5246 14.0695 12.5246 14.0695C12.5489 14.2051 12.4917 14.3428 12.3773 14.4218L12.3772 14.4216L12.3664 14.4296C12.2529 14.5125 12.1004 14.5234 11.9741 14.4557L11.9741 14.4557L11.969 14.453L8.4744 12.6304C8.28302 12.5289 8.07289 12.4757 7.86103 12.4696L7.85389 12.4694H7.84675H7.63281H7.59578L7.55916 12.4749C7.43119 12.4939 7.30345 12.5348 7.18415 12.5994L3.69499 14.4274C3.6181 14.4653 3.53231 14.479 3.44824 14.4669C3.25243 14.4262 3.12184 14.2387 3.15241 14.04L3.85406 10.1612L3.85412 10.1612L3.85543 10.1533C3.92833 9.70968 3.78129 9.25841 3.46101 8.94308L3.45821 8.94035L0.607787 6.17754C0.607751 6.17751 0.607714 6.17747 0.607678 6.17744C0.607656 6.17742 0.607635 6.1774 0.607614 6.17738C0.508392 6.08098 0.474695 5.93756 0.519548 5.80853L0.520886 5.80462C0.566967 5.66845 0.683765 5.56962 0.824447 5.54659L4.7352 4.97926C5.19935 4.92747 5.6056 4.64355 5.81439 4.22597L5.81441 4.22598L5.81657 4.22156L7.542 0.684021C7.5557 0.658525 7.57109 0.636826 7.58712 0.618971L7.63191 0.584136L7.6665 0.557236L7.68881 0.532552L7.71034 0.524651L7.71946 0.521301L7.72846 0.517599L7.7712 0.5H7.97349C8.09377 0.518941 8.19738 0.593083 8.25344 0.699944L10.0019 4.22212C10.0022 4.22262 10.0024 4.22313 10.0027 4.22363C10.2017 4.62914 10.5869 4.90939 11.0305 4.97735L11.0305 4.97737L11.0345 4.97794L14.9579 5.54712L14.959 5.54727C15.1033 5.56789 15.2247 5.6669 15.2742 5.804C15.315 5.93453 15.2778 6.07719 15.177 6.17178L15.1754 6.17328L12.223 8.96782Z" stroke="#323232"/>
</svg>
